<svg width="274" height="267" viewBox="0 0 274 267" fill="none" xmlns="http://www.w3.org/2000/svg">
<path d="M91.6464 214.988C91.6464 216.092 90.3758 216.976 88.7738 216.976C86.9508 217.141 85.6802 216.258 85.6802 214.988C85.6802 213.884 86.9508 213 88.5528 213C90.2101 212.835 91.6464 213.718 91.6464 214.988ZM74.4661 212.504C74.0794 213.608 75.1843 214.878 76.8415 215.209C78.2778 215.761 79.9351 215.209 80.2665 214.105C80.598 213 79.5484 211.731 77.8911 211.234C76.4548 210.847 74.8528 211.399 74.4661 212.504ZM98.8831 211.565C97.2811 211.951 96.1762 213 96.3419 214.27C96.5077 215.374 97.944 216.092 99.6012 215.706C101.203 215.319 102.308 214.27 102.142 213.166C101.977 212.117 100.485 211.399 98.8831 211.565ZM135.232 0C58.6117 0 0 58.1362 0 134.713C0 195.941 38.5589 248.335 93.6351 266.775C100.706 268.045 103.192 263.683 103.192 260.095C103.192 256.672 103.026 237.79 103.026 226.196C103.026 226.196 64.3569 234.477 56.2363 209.743C56.2363 209.743 49.9387 193.677 40.879 189.536C40.879 189.536 28.2286 180.868 41.7629 181.034C41.7629 181.034 55.5181 182.138 63.0863 195.278C75.1843 216.589 95.4581 210.461 103.358 206.817C104.628 197.983 108.219 191.855 112.196 188.211C81.3161 184.788 50.1597 180.316 50.1597 127.204C50.1597 112.021 54.3581 104.402 63.1968 94.6853C61.7605 91.0966 57.0649 76.3003 64.6331 57.1976C76.1786 53.609 102.75 72.1043 102.75 72.1043C113.798 69.0126 125.675 67.4115 137.442 67.4115C149.208 67.4115 161.085 69.0126 172.134 72.1043C172.134 72.1043 198.705 53.5538 210.251 57.1976C217.819 76.3555 213.123 91.0966 211.687 94.6853C220.526 104.457 225.94 112.076 225.94 127.204C225.94 180.482 193.402 184.733 162.522 188.211C167.604 192.573 171.913 200.854 171.913 213.829C171.913 232.434 171.747 255.457 171.747 259.984C171.747 263.573 174.288 267.934 181.304 266.665C236.546 248.335 274 195.941 274 134.713C274 58.1362 211.853 0 135.232 0ZM53.6952 190.42C52.977 190.972 53.1427 192.241 54.0819 193.29C54.9657 194.174 56.2363 194.56 56.9544 193.843C57.6726 193.29 57.5069 192.021 56.5677 190.972C55.6839 190.088 54.4133 189.702 53.6952 190.42ZM47.729 185.947C47.3423 186.665 47.8948 187.549 48.9996 188.101C49.8835 188.653 50.9883 188.487 51.375 187.714C51.7617 186.996 51.2093 186.113 50.1044 185.561C48.9996 185.23 48.1157 185.395 47.729 185.947ZM65.6274 205.602C64.7436 206.32 65.075 207.976 66.3456 209.025C67.6161 210.295 69.2181 210.461 69.9363 209.577C70.6544 208.86 70.323 207.203 69.2181 206.154C68.0028 204.885 66.3456 204.719 65.6274 205.602ZM59.3298 197.486C58.446 198.039 58.446 199.474 59.3298 200.744C60.2137 202.014 61.7052 202.566 62.4234 202.014C63.3073 201.296 63.3073 199.86 62.4234 198.591C61.65 197.321 60.2137 196.769 59.3298 197.486Z" fill="black"/>
</svg>

